<svg xmlns="http://www.w3.org/2000/svg" viewBox="0 0 64 64" role="img" aria-labelledby="title desc">
  <title id="title">DD</title>
  <desc id="desc">Double Dribble favicon</desc>
  <rect width="64" height="64" rx="12" fill="#050608"/>
  <circle cx="32" cy="32" r="26" stroke="#FF7A21" stroke-width="4" fill="none"/>
  <path d="M20 16h8c10 0 16 6 16 16s-6 16-16 16h-8V16zm7 26c6 0 9-3 9-10s-3-10-9-10h-3v20h3z" fill="#ffffff"/>
  <path d="M32 16h8c10 0 16 6 16 16s-6 16-16 16h-8V16zm7 26c6 0 9-3 9-10s-3-10-9-10h-3v20h3z" fill="#ffffff" opacity=".8"/>
</svg>

