<?xml version="1.0" encoding="UTF-8"?>
<svg id="Layer_2" data-name="Layer 2" xmlns="http://www.w3.org/2000/svg" viewBox="0 0 482.22 227.77">
  <defs>
    <style>
      .cls-1 {
        fill: #f7dac9;
        stroke-width: 0px;
      }
    </style>
  </defs>
  <g id="Layer_1-2" data-name="Layer 1">
    <g>
      <g>
        <path class="cls-1" d="m40.19,0c0,30.85-16.67,58.45-40.19,58.45,23.51,0,40.19,27.6,40.19,58.45,0-30.85,16.67-58.45,40.19-58.45-23.51,0-40.19-27.6-40.19-58.45Z"/>
        <path class="cls-1" d="m120.56,0c0,30.85-16.67,58.45-40.19,58.45,23.51,0,40.19,27.6,40.19,58.45,0-30.85,16.67-58.45,40.19-58.45-23.51,0-40.19-27.6-40.19-58.45Z"/>
        <path class="cls-1" d="m200.93,0c0,30.85-16.67,58.45-40.19,58.45,23.51,0,40.19,27.6,40.19,58.45,0-30.85,16.67-58.45,40.19-58.45-23.51,0-40.19-27.6-40.19-58.45Z"/>
        <path class="cls-1" d="m281.3,0c0,30.85-16.67,58.45-40.19,58.45,23.51,0,40.19,27.6,40.19,58.45,0-30.85,16.67-58.45,40.19-58.45-23.51,0-40.19-27.6-40.19-58.45Z"/>
        <path class="cls-1" d="m361.67,0c0,30.85-16.67,58.45-40.19,58.45,23.51,0,40.19,27.6,40.19,58.45,0-30.85,16.67-58.45,40.19-58.45-23.51,0-40.19-27.6-40.19-58.45Z"/>
        <path class="cls-1" d="m442.04,0c0,30.85-16.67,58.45-40.19,58.45,23.51,0,40.19,27.6,40.19,58.45,0-30.85,16.67-58.45,40.19-58.45-23.51,0-40.19-27.6-40.19-58.45Z"/>
      </g>
      <g>
        <path class="cls-1" d="m40.19,110.87c0,30.85-16.67,58.45-40.19,58.45,23.51,0,40.19,27.6,40.19,58.45,0-30.85,16.67-58.45,40.19-58.45-23.51,0-40.19-27.6-40.19-58.45Z"/>
        <path class="cls-1" d="m120.56,110.87c0,30.85-16.67,58.45-40.19,58.45,23.51,0,40.19,27.6,40.19,58.45,0-30.85,16.67-58.45,40.19-58.45-23.51,0-40.19-27.6-40.19-58.45Z"/>
        <path class="cls-1" d="m200.93,110.87c0,30.85-16.67,58.45-40.19,58.45,23.51,0,40.19,27.6,40.19,58.45,0-30.85,16.67-58.45,40.19-58.45-23.51,0-40.19-27.6-40.19-58.45Z"/>
        <path class="cls-1" d="m281.3,110.87c0,30.85-16.67,58.45-40.19,58.45,23.51,0,40.19,27.6,40.19,58.45,0-30.85,16.67-58.45,40.19-58.45-23.51,0-40.19-27.6-40.19-58.45Z"/>
        <path class="cls-1" d="m361.67,110.87c0,30.85-16.67,58.45-40.19,58.45,23.51,0,40.19,27.6,40.19,58.45,0-30.85,16.67-58.45,40.19-58.45-23.51,0-40.19-27.6-40.19-58.45Z"/>
        <path class="cls-1" d="m442.04,110.87c0,30.85-16.67,58.45-40.19,58.45,23.51,0,40.19,27.6,40.19,58.45,0-30.85,16.67-58.45,40.19-58.45-23.51,0-40.19-27.6-40.19-58.45Z"/>
      </g>
    </g>
  </g>
</svg>